<svg width="32" height="32" viewBox="0 0 32 32" fill="none" xmlns="http://www.w3.org/2000/svg">
<g clip-path="url(#clip0_242_72)">
<path fill-rule="evenodd" clip-rule="evenodd" d="M2 16C2 19.713 3.475 23.274 6.1005 25.8995C8.72601 28.525 12.287 30 16 30C19.713 30 23.274 28.525 25.8995 25.8995C28.525 23.274 30 19.713 30 16C30 12.287 28.525 8.72601 25.8995 6.1005C23.274 3.475 19.713 2 16 2C12.287 2 8.72601 3.475 6.1005 6.1005C3.475 8.72601 2 12.287 2 16ZM32 16C32 20.2435 30.3143 24.3131 27.3137 27.3137C24.3131 30.3143 20.2435 32 16 32C11.7565 32 7.68687 30.3143 4.68629 27.3137C1.68571 24.3131 0 20.2435 0 16C0 11.7565 1.68571 7.68687 4.68629 4.68629C7.68687 1.68571 11.7565 0 16 0C20.2435 0 24.3131 1.68571 27.3137 4.68629C30.3143 7.68687 32 11.7565 32 16ZM11.708 21.606C11.5205 21.7938 11.2661 21.8994 11.0007 21.8996C10.7353 21.8997 10.4808 21.7945 10.293 21.607C10.1052 21.4195 9.99963 21.1651 9.99944 20.8997C9.99926 20.6343 10.1045 20.3798 10.292 20.192L18.486 12H12.95C12.6848 12 12.4304 11.8946 12.2429 11.7071C12.0554 11.5196 11.95 11.2652 11.95 11C11.95 10.7348 12.0554 10.4804 12.2429 10.2929C12.4304 10.1054 12.6848 10 12.95 10H20.9C21.1652 10 21.4196 10.1054 21.6071 10.2929C21.7946 10.4804 21.9 10.7348 21.9 11V18.95C21.9 19.2152 21.7946 19.4696 21.6071 19.6571C21.4196 19.8446 21.1652 19.95 20.9 19.95C20.6348 19.95 20.3804 19.8446 20.1929 19.6571C20.0054 19.4696 19.9 19.2152 19.9 18.95V13.414L11.708 21.606Z" fill="#BFC6C9"/>
</g>
<defs>
<clipPath id="clip0_242_72">
<rect width="32" height="32" fill="white"/>
</clipPath>
</defs>
</svg>
