<svg width="14" height="15" viewBox="0 0 14 15" fill="none" xmlns="http://www.w3.org/2000/svg">
<g clip-path="url(#clip0_232_1197)">
<path d="M11.5 5.5C11.5 7.99 7 14 7 14C7 14 2.5 7.99 2.5 5.5C2.5 4.30653 2.97411 3.16193 3.81802 2.31802C4.66193 1.47411 5.80653 1 7 1C8.19347 1 9.33807 1.47411 10.182 2.31802C11.0259 3.16193 11.5 4.30653 11.5 5.5Z" stroke="#BFC6C9" stroke-linecap="round" stroke-linejoin="round"/>
<path d="M7 7C7.82843 7 8.5 6.32843 8.5 5.5C8.5 4.67157 7.82843 4 7 4C6.17157 4 5.5 4.67157 5.5 5.5C5.5 6.32843 6.17157 7 7 7Z" stroke="#BFC6C9" stroke-linecap="round" stroke-linejoin="round"/>
</g>
<defs>
<clipPath id="clip0_232_1197">
<rect width="14" height="14" fill="white" transform="translate(0 0.5)"/>
</clipPath>
</defs>
</svg>
