<svg width="64" height="64" viewBox="0 0 64 64" fill="none" xmlns="http://www.w3.org/2000/svg">
<path fill-rule="evenodd" clip-rule="evenodd" d="M35 1.5C35 2.32843 34.3284 3 33.5 3C32.7466 3 32.123 2.4446 32.0162 1.72091C28.4477 1.94022 24.9355 2.75007 21.624 4.12174C17.7003 5.74698 14.1352 8.12912 11.1322 11.1322C8.12912 14.1352 5.74697 17.7003 4.12173 21.624C2.75006 24.9355 1.94021 28.4477 1.7209 32.0162C2.44459 32.123 3 32.7466 3 33.5C3 34.3284 2.32843 35 1.5 35C0.671573 35 0 34.3284 0 33.5C0 32.8259 0.444666 32.2557 1.05668 32.0666C1.27221 28.394 2.10066 24.7787 3.51197 21.3714C5.17038 17.3677 7.60114 13.7298 10.6655 10.6655C13.7298 7.60114 17.3677 5.17038 21.3714 3.51198C24.7787 2.10067 28.394 1.27222 32.0666 1.05669C32.2556 0.444672 32.8259 0 33.5 0C34.3284 0 35 0.671573 35 1.5ZM34 4C37.9397 4 41.8407 4.77597 45.4805 6.28361C49.1203 7.79125 52.4274 10.001 55.2132 12.7868C57.999 15.5726 60.2087 18.8797 61.7164 22.5195C63.224 26.1593 64 30.0603 64 34H34L34 4ZM34 34L34 64C30.0603 64 26.1593 63.224 22.5195 61.7164C18.8797 60.2087 15.5726 57.999 12.7868 55.2132C10.001 52.4274 7.79125 49.1203 6.28361 45.4805C4.77597 41.8407 4 37.9397 4 34L34 34Z" fill="#F6F1F1"/>
</svg>
