<svg width="40" height="40" viewBox="0 0 40 40" fill="none" xmlns="http://www.w3.org/2000/svg">
<path d="M28.9256 23.5557C28.4506 23.3307 26.1756 22.2057 25.7506 22.0307C25.3256 21.8557 25.0256 21.8057 24.7006 22.2807C24.3756 22.7557 23.5006 23.7807 23.2256 24.1057C22.9506 24.4307 22.7006 24.4557 22.2256 24.1057C20.8613 23.5581 19.6012 22.7801 18.5006 21.8057C17.5042 20.8676 16.6607 19.7794 16.0006 18.5807C15.7256 18.1307 16.0006 17.8807 16.2006 17.6307C16.4006 17.3807 16.6506 17.1057 16.9006 16.8307C17.0834 16.5928 17.2346 16.3323 17.3506 16.0557C17.4126 15.927 17.4448 15.786 17.4448 15.6432C17.4448 15.5003 17.4126 15.3593 17.3506 15.2307C17.3506 15.0057 16.3006 12.7307 15.9006 11.8057C15.5006 10.8807 15.1506 11.0057 14.8756 11.0057H13.8756C13.3992 11.0242 12.9496 11.231 12.6256 11.5807C12.1025 12.0798 11.6881 12.6817 11.4085 13.3485C11.1289 14.0153 10.99 14.7327 11.0006 15.4557C11.1284 17.2306 11.7811 18.9275 12.8756 20.3307C14.884 23.3142 17.6317 25.7261 20.8506 27.3307C21.9506 27.8057 22.8006 28.0807 23.4756 28.3057C24.4234 28.5921 25.4253 28.6521 26.4006 28.4807C27.0483 28.3493 27.6621 28.0862 28.204 27.7077C28.7458 27.3293 29.2042 26.8436 29.5506 26.2807C29.8388 25.5855 29.9338 24.8254 29.8256 24.0807C29.7006 23.9057 29.4006 23.7807 28.9256 23.5557Z" fill="#146C94"/>
<path d="M32.75 6.45064C31.0211 4.70535 28.9601 3.32395 26.6888 2.38792C24.4174 1.4519 21.9816 0.980193 19.525 1.00064C16.2707 1.01767 13.0779 1.88822 10.2654 3.52534C7.45282 5.16247 5.11904 7.50886 3.4971 10.3302C1.87515 13.1515 1.02182 16.349 1.02233 19.6033C1.02284 22.8576 1.87717 26.0548 3.5 28.8756L1 38.5006L10.85 36.0006C13.5731 37.4824 16.6249 38.2561 19.725 38.2506H19.525C23.2198 38.2747 26.838 37.1978 29.9183 35.1573C32.9986 33.1167 35.4014 30.205 36.8202 26.7934C38.239 23.3818 38.6096 19.6249 37.8847 16.0018C37.1598 12.3788 35.3722 9.0537 32.75 6.45064ZM19.525 35.0506C16.7514 35.0528 14.0293 34.301 11.65 32.8756L11.1 32.5506L5.25 34.0756L6.8 28.3756L6.45 27.8006C4.45339 24.5852 3.70653 20.7488 4.35112 17.0192C4.99571 13.2896 6.98691 9.92635 9.94692 7.5676C12.9069 5.20885 16.6298 4.01869 20.4092 4.22293C24.1885 4.42718 27.7614 6.01162 30.45 8.67564C31.8913 10.1054 33.0337 11.8077 33.8106 13.6833C34.5875 15.559 34.9833 17.5705 34.975 19.6006C34.9684 23.6962 33.3385 27.6221 30.4425 30.5181C27.5465 33.4141 23.6206 35.044 19.525 35.0506Z" fill="#146C94"/>
</svg>
