<svg width="16" height="12" viewBox="0 0 16 12" fill="none" xmlns="http://www.w3.org/2000/svg">
<path d="M12.15 6.56354H1C0.71667 6.56354 0.479004 6.46754 0.287004 6.27554C0.0950036 6.08354 -0.000663206 5.84621 3.4602e-06 5.56354C3.4602e-06 5.28021 0.0960036 5.04254 0.288004 4.85054C0.480004 4.65854 0.717337 4.56287 1 4.56354H12.15L9.3 1.71354C9.1 1.51354 9.004 1.2802 9.012 1.01354C9.02 0.746872 9.116 0.513538 9.3 0.313538C9.5 0.113538 9.73767 0.00920488 10.013 0.000538216C10.2883 -0.00812845 10.5257 0.0878717 10.725 0.288538L15.3 4.86354C15.4 4.96354 15.471 5.07187 15.513 5.18854C15.555 5.30521 15.5757 5.43021 15.575 5.56354C15.575 5.69687 15.554 5.82187 15.512 5.93854C15.47 6.05521 15.3993 6.16354 15.3 6.26354L10.725 10.8385C10.525 11.0385 10.2877 11.1345 10.013 11.1265C9.73834 11.1185 9.50067 11.0142 9.3 10.8135C9.11667 10.6135 9.02067 10.3802 9.012 10.1135C9.00334 9.84687 9.09934 9.61354 9.3 9.41354L12.15 6.56354Z" fill="#181823"/>
</svg>
